<svg xmlns="http://www.w3.org/2000/svg" viewBox="0 0 48 48" width="48" height="48">
  <defs>
    <linearGradient id="bgGrad" x1="0%" y1="0%" x2="100%" y2="100%">
      <stop offset="0%" stop-color="#3b82f6"/>
      <stop offset="100%" stop-color="#9333ea"/>
    </linearGradient>
  </defs>
  <!-- Background rounded square -->
  <rect width="48" height="48" rx="12" fill="url(#bgGrad)"/>
  <!-- Brain shape using paths (left hemisphere) -->
  <path d="M24 9 C22 9 20.2 9.8 18.8 11 C17.4 10.4 15.5 10.6 14.3 11.8 C13 13 12.8 14.9 13.4 16.4 C12.3 17.4 11.5 18.9 11.5 20.5 C11.5 22.2 12.3 23.7 13.5 24.7 C13.3 25.3 13.2 25.9 13.2 26.5 C13.2 29.3 15.5 31.6 18.3 31.6 C18.6 31.6 18.9 31.6 19.2 31.5 L19.2 38 C19.2 38.5 19.6 39 20.2 39 L27.8 39 C28.4 39 28.8 38.5 28.8 38 L28.8 31.5 C29.1 31.6 29.4 31.6 29.7 31.6 C32.5 31.6 34.8 29.3 34.8 26.5 C34.8 25.9 34.7 25.3 34.5 24.7 C35.7 23.7 36.5 22.2 36.5 20.5 C36.5 18.9 35.7 17.4 34.6 16.4 C35.2 14.9 35 13 33.7 11.8 C32.5 10.6 30.6 10.4 29.2 11 C27.8 9.8 26 9 24 9 Z" fill="white" opacity="0.15"/>
  <!-- Stylized Q letter -->
  <circle cx="23" cy="22" r="8" fill="none" stroke="white" stroke-width="2.8"/>
  <line x1="29" y1="28" x2="35" y2="34" stroke="white" stroke-width="2.8" stroke-linecap="round"/>
  <!-- Small sparkle/star for quiz feel -->
  <circle cx="33" cy="12" r="2" fill="white" opacity="0.9"/>
  <circle cx="37" cy="16" r="1.2" fill="white" opacity="0.7"/>
  <circle cx="36" cy="10" r="1" fill="white" opacity="0.6"/>
</svg>
